<?xml version="1.0" encoding="UTF-8"?>
<svg xmlns="http://www.w3.org/2000/svg" xmlns:xlink="http://www.w3.org/1999/xlink" width="108pt" height="108pt" viewBox="0 0 108 108" version="1.1">
<g id="surface7376">
<path style=" stroke:none;fill-rule:nonzero;fill:rgb(13.725491%,58.431375%,92.54902%);fill-opacity:1;" d="M 106.9375 44.65625 C 106.644531 44.425781 103.910156 42.390625 98.144531 42.390625 C 96.621094 42.398438 95.101562 42.523438 93.601562 42.773438 C 92.484375 35.226562 86.355469 31.683594 86.074219 31.519531 L 84.527344 30.636719 L 83.507812 32.085938 C 82.230469 34.035156 81.101562 36.046875 80.558594 38.300781 C 79.523438 42.609375 80.152344 46.65625 82.371094 50.113281 C 79.6875 51.589844 75.117188 51.71875 74.25 51.75 L 3.558594 51.75 C 1.699219 51.753906 0.195312 53.234375 0.183594 55.066406 C 0.0976562 61.214844 0.976562 67.5625 3.121094 73.335938 C 5.570312 79.675781 9.21875 84.347656 13.960938 87.203125 C 19.277344 90.414062 27.910156 92.25 37.699219 92.25 C 42.121094 92.261719 46.535156 91.871094 50.882812 91.070312 C 56.925781 89.976562 62.742188 87.890625 68.089844 84.90625 C 72.496094 82.386719 76.460938 79.1875 79.832031 75.421875 C 85.46875 69.125 88.824219 62.117188 91.324219 55.886719 C 91.660156 55.886719 91.992188 55.886719 92.316406 55.886719 C 98.488281 55.886719 102.28125 53.449219 104.375 51.410156 C 105.765625 50.109375 106.851562 48.519531 107.558594 46.765625 L 108 45.484375 Z M 106.9375 44.65625 "/>
<path style=" stroke:none;fill-rule:nonzero;fill:rgb(13.725491%,58.431375%,92.54902%);fill-opacity:1;" d="M 18 49.5 L 11.25 49.5 C 10.007812 49.5 9 48.492188 9 47.25 L 9 40.5 C 9 39.257812 10.007812 38.25 11.25 38.25 L 18 38.25 C 19.242188 38.25 20.25 39.257812 20.25 40.5 L 20.25 47.25 C 20.25 48.492188 19.242188 49.5 18 49.5 Z M 18 49.5 "/>
<path style=" stroke:none;fill-rule:nonzero;fill:rgb(13.725491%,58.431375%,92.54902%);fill-opacity:1;" d="M 31.5 49.5 L 24.75 49.5 C 23.507812 49.5 22.5 48.492188 22.5 47.25 L 22.5 40.5 C 22.5 39.257812 23.507812 38.25 24.75 38.25 L 31.5 38.25 C 32.742188 38.25 33.75 39.257812 33.75 40.5 L 33.75 47.25 C 33.75 48.492188 32.742188 49.5 31.5 49.5 Z M 31.5 49.5 "/>
<path style=" stroke:none;fill-rule:nonzero;fill:rgb(13.725491%,58.431375%,92.54902%);fill-opacity:1;" d="M 45 49.5 L 38.25 49.5 C 37.007812 49.5 36 48.492188 36 47.25 L 36 40.5 C 36 39.257812 37.007812 38.25 38.25 38.25 L 45 38.25 C 46.242188 38.25 47.25 39.257812 47.25 40.5 L 47.25 47.25 C 47.25 48.492188 46.242188 49.5 45 49.5 Z M 45 49.5 "/>
<path style=" stroke:none;fill-rule:nonzero;fill:rgb(13.725491%,58.431375%,92.54902%);fill-opacity:1;" d="M 58.5 49.5 L 51.75 49.5 C 50.507812 49.5 49.5 48.492188 49.5 47.25 L 49.5 40.5 C 49.5 39.257812 50.507812 38.25 51.75 38.25 L 58.5 38.25 C 59.742188 38.25 60.75 39.257812 60.75 40.5 L 60.75 47.25 C 60.75 48.492188 59.742188 49.5 58.5 49.5 Z M 58.5 49.5 "/>
<path style=" stroke:none;fill-rule:nonzero;fill:rgb(13.725491%,58.431375%,92.54902%);fill-opacity:1;" d="M 31.5 36 L 24.75 36 C 23.507812 36 22.5 34.992188 22.5 33.75 L 22.5 27 C 22.5 25.757812 23.507812 24.75 24.75 24.75 L 31.5 24.75 C 32.742188 24.75 33.75 25.757812 33.75 27 L 33.75 33.75 C 33.75 34.992188 32.742188 36 31.5 36 Z M 31.5 36 "/>
<path style=" stroke:none;fill-rule:nonzero;fill:rgb(13.725491%,58.431375%,92.54902%);fill-opacity:1;" d="M 45 36 L 38.25 36 C 37.007812 36 36 34.992188 36 33.75 L 36 27 C 36 25.757812 37.007812 24.75 38.25 24.75 L 45 24.75 C 46.242188 24.75 47.25 25.757812 47.25 27 L 47.25 33.75 C 47.25 34.992188 46.242188 36 45 36 Z M 45 36 "/>
<path style=" stroke:none;fill-rule:nonzero;fill:rgb(13.725491%,58.431375%,92.54902%);fill-opacity:1;" d="M 58.5 36 L 51.75 36 C 50.507812 36 49.5 34.992188 49.5 33.75 L 49.5 27 C 49.5 25.757812 50.507812 24.75 51.75 24.75 L 58.5 24.75 C 59.742188 24.75 60.75 25.757812 60.75 27 L 60.75 33.75 C 60.75 34.992188 59.742188 36 58.5 36 Z M 58.5 36 "/>
<path style=" stroke:none;fill-rule:nonzero;fill:rgb(13.725491%,58.431375%,92.54902%);fill-opacity:1;" d="M 58.5 22.5 L 51.75 22.5 C 50.507812 22.5 49.5 21.492188 49.5 20.25 L 49.5 13.5 C 49.5 12.257812 50.507812 11.25 51.75 11.25 L 58.5 11.25 C 59.742188 11.25 60.75 12.257812 60.75 13.5 L 60.75 20.25 C 60.75 21.492188 59.742188 22.5 58.5 22.5 Z M 58.5 22.5 "/>
<path style=" stroke:none;fill-rule:nonzero;fill:rgb(13.725491%,58.431375%,92.54902%);fill-opacity:1;" d="M 72 49.5 L 65.25 49.5 C 64.007812 49.5 63 48.492188 63 47.25 L 63 40.5 C 63 39.257812 64.007812 38.25 65.25 38.25 L 72 38.25 C 73.242188 38.25 74.25 39.257812 74.25 40.5 L 74.25 47.25 C 74.25 48.492188 73.242188 49.5 72 49.5 Z M 72 49.5 "/>
</g>
</svg>
