<?xml version="1.0" encoding="UTF-8"?>
<svg xmlns="http://www.w3.org/2000/svg" xmlns:xlink="http://www.w3.org/1999/xlink" width="150pt" height="150pt" viewBox="0 0 150 150" version="1.1">
<g id="surface7497">
<path style=" stroke:none;fill-rule:nonzero;fill:rgb(22.352941%,75.686276%,84.313726%);fill-opacity:1;" d="M 85.5 75 C 85.5 80.800781 80.800781 85.5 75 85.5 C 69.199219 85.5 64.5 80.800781 64.5 75 C 64.5 69.199219 69.199219 64.5 75 64.5 C 80.800781 64.5 85.5 69.199219 85.5 75 Z M 85.5 75 "/>
<path style=" stroke:none;fill-rule:nonzero;fill:rgb(12.156863%,12.941177%,16.862746%);fill-opacity:1;" d="M 75 87 C 68.382812 87 63 81.617188 63 75 C 63 68.382812 68.382812 63 75 63 C 81.617188 63 87 68.382812 87 75 C 87 81.617188 81.617188 87 75 87 Z M 75 66 C 70.035156 66 66 70.035156 66 75 C 66 79.964844 70.035156 84 75 84 C 79.964844 84 84 79.964844 84 75 C 84 70.035156 79.964844 66 75 66 Z M 75 66 "/>
<path style=" stroke:none;fill-rule:nonzero;fill:rgb(22.352941%,75.686276%,84.313726%);fill-opacity:1;" d="M 132.75 75 C 132.75 66.9375 123.039062 59.957031 107.972656 55.804688 C 111.847656 40.660156 110.652344 28.75 103.734375 24.710938 C 101.003906 23.113281 97.691406 22.824219 93.890625 23.839844 C 88.164062 25.375 81.601562 29.855469 75 36.441406 C 68.398438 29.855469 61.835938 25.375 56.109375 23.839844 C 52.308594 22.824219 48.996094 23.113281 46.265625 24.710938 C 39.347656 28.75 38.152344 40.65625 42.027344 55.804688 C 26.960938 59.957031 17.25 66.9375 17.25 75 C 17.25 83.0625 26.960938 90.042969 42.027344 94.199219 C 38.152344 109.34375 39.347656 121.25 46.265625 125.292969 C 47.933594 126.265625 49.820312 126.757812 51.902344 126.753906 C 53.226562 126.753906 54.632812 126.554688 56.109375 126.160156 C 61.835938 124.625 68.398438 120.144531 75 113.5625 C 81.601562 120.144531 88.164062 124.625 93.890625 126.160156 C 95.367188 126.554688 96.773438 126.753906 98.097656 126.753906 C 100.179688 126.753906 102.066406 126.265625 103.734375 125.292969 C 110.652344 121.25 111.84375 109.34375 107.972656 94.199219 C 123.039062 90.042969 132.75 83.0625 132.75 75 Z M 95.054688 28.1875 C 96.140625 27.898438 97.148438 27.75 98.078125 27.75 C 99.367188 27.75 100.5 28.03125 101.464844 28.59375 C 106.101562 31.304688 107.046875 41.222656 103.59375 54.710938 C 98.832031 53.640625 93.640625 52.835938 88.121094 52.335938 C 84.882812 47.667969 81.515625 43.414062 78.121094 39.691406 C 84.148438 33.652344 90.058594 29.523438 95.054688 28.1875 Z M 91.132812 84.449219 C 89.363281 87.546875 87.503906 90.515625 85.59375 93.355469 C 82.203125 93.609375 78.667969 93.75 75 93.75 C 71.332031 93.75 67.796875 93.609375 64.410156 93.355469 C 62.5 90.515625 60.636719 87.546875 58.867188 84.449219 C 57.039062 81.246094 55.398438 78.089844 53.929688 75 C 55.398438 71.914062 57.039062 68.757812 58.867188 65.554688 C 60.640625 62.453125 62.5 59.484375 64.410156 56.644531 C 67.796875 56.390625 71.332031 56.25 75 56.25 C 78.667969 56.25 82.203125 56.390625 85.589844 56.644531 C 87.5 59.484375 89.363281 62.453125 91.132812 65.554688 C 92.960938 68.757812 94.601562 71.914062 96.070312 75 C 94.601562 78.089844 92.960938 81.246094 91.132812 84.449219 Z M 98.464844 80.316406 C 100.027344 84.007812 101.316406 87.5625 102.363281 90.941406 C 98.949219 91.699219 95.265625 92.335938 91.332031 92.804688 C 92.59375 90.816406 93.839844 88.78125 95.039062 86.675781 C 96.257812 84.550781 97.390625 82.425781 98.464844 80.316406 Z M 75 107.035156 C 72.546875 104.320312 70.097656 101.316406 67.703125 98.066406 C 70.09375 98.183594 72.523438 98.25 75 98.25 C 77.476562 98.25 79.90625 98.183594 82.296875 98.066406 C 79.902344 101.316406 77.453125 104.320312 75 107.035156 Z M 58.667969 92.804688 C 54.734375 92.335938 51.050781 91.699219 47.636719 90.941406 C 48.679688 87.5625 49.972656 84.007812 51.53125 80.316406 C 52.605469 82.425781 53.742188 84.550781 54.957031 86.675781 C 56.160156 88.785156 57.40625 90.816406 58.667969 92.804688 Z M 51.535156 69.683594 C 49.972656 65.992188 48.679688 62.4375 47.636719 59.058594 C 51.050781 58.296875 54.738281 57.664062 58.671875 57.195312 C 57.40625 59.183594 56.164062 61.21875 54.960938 63.324219 C 53.742188 65.453125 52.609375 67.574219 51.535156 69.683594 Z M 75 42.964844 C 77.453125 45.679688 79.902344 48.683594 82.296875 51.933594 C 79.90625 51.816406 77.476562 51.75 75 51.75 C 72.523438 51.75 70.09375 51.816406 67.703125 51.933594 C 70.097656 48.683594 72.546875 45.679688 75 42.964844 Z M 95.039062 63.324219 C 93.839844 61.21875 92.59375 59.183594 91.332031 57.195312 C 95.265625 57.664062 98.949219 58.300781 102.363281 59.058594 C 101.320312 62.4375 100.027344 65.992188 98.46875 69.683594 C 97.390625 67.574219 96.257812 65.453125 95.039062 63.324219 Z M 48.535156 28.59375 C 49.5 28.03125 50.632812 27.75 51.921875 27.75 C 52.847656 27.75 53.859375 27.898438 54.945312 28.1875 C 59.941406 29.523438 65.851562 33.652344 71.878906 39.691406 C 68.484375 43.414062 65.117188 47.667969 61.878906 52.335938 C 56.359375 52.832031 51.164062 53.636719 46.40625 54.710938 C 42.953125 41.222656 43.898438 31.300781 48.535156 28.59375 Z M 21.75 75 C 21.75 69.605469 29.851562 63.839844 43.253906 60.148438 C 44.707031 64.886719 46.613281 69.878906 48.960938 75 C 46.613281 80.121094 44.707031 85.113281 43.253906 89.851562 C 29.851562 86.160156 21.75 80.394531 21.75 75 Z M 54.945312 121.8125 C 52.347656 122.507812 50.191406 122.371094 48.535156 121.40625 C 43.898438 118.699219 42.953125 108.777344 46.40625 95.289062 C 51.164062 96.363281 56.359375 97.167969 61.875 97.664062 C 65.113281 102.335938 68.484375 106.585938 71.878906 110.308594 C 65.851562 116.347656 59.941406 120.476562 54.945312 121.8125 Z M 101.464844 121.40625 C 99.808594 122.371094 97.65625 122.507812 95.054688 121.8125 C 90.058594 120.476562 84.148438 116.347656 78.121094 110.308594 C 81.515625 106.585938 84.882812 102.332031 88.121094 97.664062 C 93.640625 97.164062 98.832031 96.359375 103.589844 95.289062 C 107.046875 108.777344 106.101562 118.699219 101.464844 121.40625 Z M 106.746094 89.851562 C 105.292969 85.113281 103.386719 80.121094 101.039062 75 C 103.386719 69.878906 105.292969 64.886719 106.746094 60.148438 C 120.148438 63.839844 128.25 69.605469 128.25 75 C 128.25 80.394531 120.148438 86.160156 106.746094 89.851562 Z M 106.746094 89.851562 "/>
<path style=" stroke:none;fill-rule:nonzero;fill:rgb(12.156863%,12.941177%,16.862746%);fill-opacity:1;" d="M 51.890625 127.503906 C 49.6875 127.503906 47.667969 126.976562 45.890625 125.9375 C 38.941406 121.882812 37.214844 110.523438 41.125 94.722656 C 25.460938 90.269531 16.5 83.101562 16.5 75 C 16.5 66.898438 25.460938 59.730469 41.121094 55.277344 C 37.214844 39.476562 38.941406 28.117188 45.890625 24.0625 C 48.796875 22.359375 52.300781 22.042969 56.304688 23.117188 C 61.882812 24.609375 68.335938 28.847656 75 35.386719 C 81.664062 28.847656 88.117188 24.609375 93.695312 23.117188 C 97.699219 22.046875 101.203125 22.363281 104.109375 24.0625 C 111.058594 28.117188 112.785156 39.476562 108.878906 55.277344 C 124.539062 59.730469 133.5 66.898438 133.5 75 C 133.5 83.101562 124.539062 90.269531 108.878906 94.722656 C 112.785156 110.523438 111.058594 121.878906 104.109375 125.9375 C 101.21875 127.625 97.679688 127.953125 93.695312 126.882812 C 88.117188 125.390625 81.664062 121.152344 75 114.617188 C 68.335938 121.152344 61.882812 125.390625 56.304688 126.882812 C 54.769531 127.292969 53.289062 127.503906 51.902344 127.503906 C 51.898438 127.503906 51.894531 127.503906 51.890625 127.503906 Z M 51.90625 24 C 49.953125 24 48.195312 24.453125 46.644531 25.359375 C 40.308594 29.058594 38.855469 40.371094 42.753906 55.617188 C 42.851562 56.011719 42.621094 56.417969 42.226562 56.527344 C 27.058594 60.707031 18 67.617188 18 75 C 18 82.382812 27.058594 89.292969 42.226562 93.472656 C 42.621094 93.582031 42.855469 93.988281 42.753906 94.382812 C 38.855469 109.628906 40.308594 120.945312 46.644531 124.640625 C 48.191406 125.542969 49.957031 126 51.890625 126 C 51.894531 126 51.898438 126 51.902344 126 C 53.160156 126 54.507812 125.8125 55.917969 125.433594 C 61.386719 123.96875 67.804688 119.679688 74.46875 113.03125 C 74.761719 112.738281 75.238281 112.738281 75.53125 113.03125 C 82.195312 119.679688 88.613281 123.96875 94.082031 125.433594 C 97.675781 126.394531 100.808594 126.125 103.355469 124.640625 C 109.691406 120.941406 111.144531 109.628906 107.246094 94.382812 C 107.144531 93.988281 107.378906 93.582031 107.773438 93.472656 C 122.941406 89.292969 132 82.382812 132 75 C 132 67.617188 122.941406 60.707031 107.773438 56.527344 C 107.378906 56.417969 107.144531 56.011719 107.246094 55.617188 C 111.144531 40.371094 109.6875 29.054688 103.351562 25.359375 C 100.804688 23.867188 97.683594 23.601562 94.082031 24.566406 C 88.609375 26.03125 82.195312 30.320312 75.527344 36.96875 C 75.234375 37.261719 74.761719 37.261719 74.46875 36.96875 C 67.800781 30.320312 61.386719 26.03125 55.914062 24.566406 C 54.503906 24.1875 53.164062 24 51.90625 24 Z M 98.078125 123 C 97.085938 123 96.011719 122.84375 94.859375 122.539062 C 89.863281 121.199219 83.890625 117.15625 77.589844 110.839844 C 77.308594 110.554688 77.296875 110.097656 77.566406 109.804688 C 80.960938 106.078125 84.304688 101.847656 87.503906 97.234375 C 87.632812 97.054688 87.832031 96.9375 88.054688 96.917969 C 93.472656 96.425781 98.644531 95.632812 103.429688 94.558594 C 103.820312 94.46875 104.21875 94.707031 104.320312 95.101562 C 107.824219 108.789062 106.875 119.113281 101.839844 122.054688 C 100.761719 122.683594 99.503906 123 98.078125 123 Z M 79.15625 110.28125 C 85.082031 116.121094 90.636719 119.851562 95.246094 121.089844 C 97.644531 121.730469 99.609375 121.617188 101.085938 120.757812 C 105.367188 118.257812 106.121094 108.648438 103.042969 96.179688 C 98.503906 97.167969 93.628906 97.90625 88.539062 98.378906 C 85.515625 102.71875 82.363281 106.714844 79.15625 110.28125 Z M 51.921875 123 C 50.496094 123 49.238281 122.683594 48.160156 122.054688 C 43.125 119.113281 42.175781 108.789062 45.679688 95.101562 C 45.78125 94.710938 46.179688 94.472656 46.570312 94.558594 C 51.355469 95.632812 56.527344 96.425781 61.945312 96.917969 C 62.164062 96.9375 62.367188 97.054688 62.496094 97.234375 C 65.695312 101.847656 69.039062 106.078125 72.433594 109.804688 C 72.703125 110.097656 72.695312 110.554688 72.410156 110.839844 C 66.109375 117.152344 60.136719 121.199219 55.140625 122.539062 C 53.988281 122.84375 52.914062 123 51.921875 123 Z M 46.957031 96.179688 C 43.878906 108.648438 44.632812 118.257812 48.914062 120.757812 C 50.386719 121.617188 52.351562 121.730469 54.753906 121.089844 C 59.363281 119.851562 64.917969 116.121094 70.84375 110.28125 C 67.640625 106.714844 64.488281 102.71875 61.460938 98.378906 C 56.371094 97.90625 51.496094 97.167969 46.957031 96.179688 Z M 75 107.785156 C 74.789062 107.785156 74.585938 107.695312 74.445312 107.535156 C 71.949219 104.777344 69.476562 101.742188 67.097656 98.507812 C 66.929688 98.277344 66.90625 97.964844 67.042969 97.710938 C 67.179688 97.453125 67.433594 97.300781 67.738281 97.316406 C 72.699219 97.558594 77.300781 97.558594 82.261719 97.316406 C 82.558594 97.296875 82.820312 97.453125 82.957031 97.710938 C 83.09375 97.964844 83.074219 98.277344 82.902344 98.507812 C 80.523438 101.738281 78.050781 104.777344 75.554688 107.535156 C 75.414062 107.695312 75.210938 107.785156 75 107.785156 Z M 69.25 98.886719 C 71.128906 101.367188 73.054688 103.726562 75 105.910156 C 76.945312 103.726562 78.871094 101.371094 80.75 98.886719 C 76.832031 99.035156 73.167969 99.035156 69.25 98.886719 Z M 75 94.5 C 71.445312 94.5 67.863281 94.367188 64.351562 94.105469 C 64.121094 94.089844 63.914062 93.96875 63.785156 93.777344 C 61.777344 90.792969 59.90625 87.777344 58.214844 84.820312 C 56.445312 81.71875 54.777344 78.523438 53.25 75.324219 C 53.152344 75.117188 53.152344 74.882812 53.25 74.675781 C 54.777344 71.476562 56.445312 68.28125 58.214844 65.179688 C 59.902344 62.222656 61.777344 59.210938 63.785156 56.222656 C 63.914062 56.03125 64.125 55.910156 64.351562 55.894531 C 71.378906 55.367188 78.621094 55.367188 85.648438 55.894531 C 85.875 55.910156 86.085938 56.03125 86.214844 56.222656 C 88.222656 59.210938 90.097656 62.222656 91.785156 65.179688 C 93.554688 68.28125 95.222656 71.476562 96.75 74.675781 C 96.847656 74.882812 96.847656 75.117188 96.75 75.324219 C 95.222656 78.523438 93.554688 81.71875 91.785156 84.820312 C 90.09375 87.777344 88.222656 90.792969 86.214844 93.777344 C 86.089844 93.964844 85.878906 94.085938 85.648438 94.105469 C 82.136719 94.367188 78.554688 94.5 75 94.5 Z M 64.828125 92.636719 C 71.546875 93.117188 78.453125 93.117188 85.171875 92.636719 C 87.082031 89.78125 88.867188 86.902344 90.480469 84.074219 C 92.171875 81.109375 93.773438 78.058594 95.238281 75 C 93.773438 71.941406 92.171875 68.890625 90.480469 65.925781 C 88.867188 63.101562 87.082031 60.222656 85.171875 57.363281 C 78.453125 56.878906 71.542969 56.878906 64.824219 57.363281 C 62.914062 60.222656 61.128906 63.101562 59.515625 65.925781 C 57.824219 68.890625 56.222656 71.941406 54.757812 75 C 56.222656 78.058594 57.824219 81.109375 59.515625 84.074219 C 61.132812 86.902344 62.917969 89.78125 64.828125 92.636719 Z M 91.332031 93.554688 C 91.078125 93.554688 90.835938 93.425781 90.699219 93.207031 C 90.542969 92.960938 90.542969 92.648438 90.699219 92.40625 C 92.089844 90.214844 93.296875 88.21875 94.390625 86.308594 C 95.535156 84.300781 96.679688 82.171875 97.796875 79.976562 C 97.929688 79.71875 98.207031 79.566406 98.492188 79.570312 C 98.785156 79.582031 99.042969 79.757812 99.15625 80.027344 C 100.679688 83.625 102 87.226562 103.078125 90.722656 C 103.140625 90.921875 103.117188 91.136719 103.011719 91.320312 C 102.90625 91.5 102.730469 91.628906 102.523438 91.675781 C 99 92.460938 95.261719 93.09375 91.421875 93.550781 C 91.390625 93.554688 91.359375 93.554688 91.332031 93.554688 Z M 98.394531 82.097656 C 97.503906 83.804688 96.597656 85.464844 95.691406 87.050781 C 94.816406 88.582031 93.867188 90.167969 92.8125 91.863281 C 95.765625 91.46875 98.648438 90.972656 101.402344 90.382812 C 100.539062 87.660156 99.53125 84.886719 98.394531 82.097656 Z M 58.667969 93.554688 C 58.636719 93.554688 58.609375 93.554688 58.578125 93.550781 C 54.738281 93.089844 51 92.460938 47.476562 91.671875 C 47.269531 91.628906 47.09375 91.5 46.988281 91.316406 C 46.882812 91.136719 46.859375 90.917969 46.921875 90.71875 C 48 87.222656 49.320312 83.625 50.84375 80.027344 C 50.957031 79.757812 51.214844 79.578125 51.507812 79.570312 C 51.78125 79.539062 52.070312 79.71875 52.203125 79.976562 C 53.320312 82.167969 54.464844 84.296875 55.609375 86.304688 C 56.703125 88.214844 57.910156 90.210938 59.300781 92.402344 C 59.457031 92.648438 59.457031 92.960938 59.300781 93.207031 C 59.164062 93.425781 58.925781 93.554688 58.667969 93.554688 Z M 48.597656 90.382812 C 51.355469 90.972656 54.234375 91.46875 57.1875 91.863281 C 56.132812 90.167969 55.183594 88.582031 54.308594 87.050781 C 53.402344 85.464844 52.5 83.800781 51.609375 82.097656 C 50.46875 84.886719 49.460938 87.660156 48.597656 90.382812 Z M 106.746094 90.601562 C 106.425781 90.601562 106.128906 90.394531 106.03125 90.070312 C 104.566406 85.300781 102.660156 80.335938 100.359375 75.3125 C 100.265625 75.117188 100.265625 74.886719 100.359375 74.6875 C 102.660156 69.664062 104.566406 64.699219 106.03125 59.929688 C 106.152344 59.539062 106.5625 59.320312 106.949219 59.425781 C 120.550781 63.175781 129 69.140625 129 75 C 129 80.859375 120.550781 86.824219 106.945312 90.574219 C 106.878906 90.59375 106.8125 90.601562 106.746094 90.601562 Z M 101.863281 75 C 104.015625 79.734375 105.828125 84.414062 107.246094 88.933594 C 119.574219 85.417969 127.5 79.984375 127.5 75 C 127.5 70.015625 119.574219 64.582031 107.246094 61.066406 C 105.828125 65.585938 104.015625 70.269531 101.863281 75 Z M 43.253906 90.601562 C 43.1875 90.601562 43.121094 90.59375 43.054688 90.574219 C 29.449219 86.824219 21 80.859375 21 75 C 21 69.140625 29.449219 63.175781 43.054688 59.425781 C 43.441406 59.320312 43.847656 59.539062 43.96875 59.929688 C 45.433594 64.699219 47.34375 69.664062 49.644531 74.6875 C 49.734375 74.886719 49.734375 75.113281 49.644531 75.3125 C 47.339844 80.339844 45.433594 85.304688 43.972656 90.070312 C 43.871094 90.394531 43.574219 90.601562 43.253906 90.601562 Z M 42.753906 61.066406 C 30.425781 64.582031 22.5 70.015625 22.5 75 C 22.5 79.984375 30.425781 85.417969 42.753906 88.933594 C 44.171875 84.414062 45.984375 79.734375 48.136719 75 C 45.984375 70.269531 44.171875 65.585938 42.753906 61.066406 Z M 98.46875 70.433594 C 98.183594 70.433594 97.925781 70.277344 97.796875 70.027344 C 96.664062 67.792969 95.546875 65.722656 94.390625 63.695312 C 93.300781 61.789062 92.09375 59.792969 90.699219 57.597656 C 90.542969 57.351562 90.542969 57.039062 90.699219 56.792969 C 90.851562 56.550781 91.128906 56.414062 91.421875 56.449219 C 95.265625 56.910156 99.003906 57.542969 102.527344 58.328125 C 102.730469 58.371094 102.90625 58.5 103.015625 58.683594 C 103.117188 58.863281 103.144531 59.082031 103.082031 59.28125 C 102 62.785156 100.679688 66.382812 99.160156 69.976562 C 99.046875 70.246094 98.785156 70.421875 98.496094 70.433594 C 98.484375 70.433594 98.476562 70.433594 98.46875 70.433594 Z M 95.691406 62.953125 C 96.609375 64.558594 97.5 66.1875 98.390625 67.90625 C 99.527344 65.121094 100.535156 62.339844 101.398438 59.617188 C 98.644531 59.027344 95.765625 58.53125 92.808594 58.136719 C 93.871094 59.835938 94.816406 61.421875 95.691406 62.953125 Z M 51.53125 70.433594 C 51.523438 70.433594 51.515625 70.433594 51.503906 70.433594 C 51.214844 70.425781 50.953125 70.246094 50.839844 69.976562 C 49.320312 66.382812 48 62.785156 46.921875 59.28125 C 46.855469 59.082031 46.882812 58.863281 46.988281 58.683594 C 47.09375 58.503906 47.269531 58.375 47.472656 58.328125 C 51 57.542969 54.734375 56.910156 58.578125 56.449219 C 58.871094 56.421875 59.148438 56.550781 59.304688 56.796875 C 59.457031 57.042969 59.457031 57.355469 59.300781 57.597656 C 57.90625 59.792969 56.699219 61.789062 55.609375 63.699219 C 54.453125 65.722656 53.339844 67.792969 52.203125 70.027344 C 52.074219 70.277344 51.816406 70.433594 51.53125 70.433594 Z M 48.597656 59.617188 C 49.464844 62.339844 50.472656 65.121094 51.605469 67.90625 C 52.5 66.1875 53.390625 64.558594 54.308594 62.953125 C 55.183594 61.421875 56.128906 59.835938 57.1875 58.136719 C 54.234375 58.53125 51.355469 59.027344 48.597656 59.617188 Z M 103.59375 55.460938 C 103.539062 55.460938 103.484375 55.453125 103.429688 55.441406 C 98.648438 54.367188 93.472656 53.574219 88.054688 53.082031 C 87.835938 53.0625 87.632812 52.945312 87.503906 52.765625 C 84.304688 48.148438 80.960938 43.921875 77.566406 40.199219 C 77.296875 39.902344 77.304688 39.445312 77.589844 39.164062 C 83.890625 32.847656 89.863281 28.800781 94.859375 27.464844 C 97.664062 26.714844 100.015625 26.882812 101.839844 27.945312 C 106.875 30.886719 107.824219 41.214844 104.320312 54.898438 C 104.234375 55.234375 103.929688 55.460938 103.59375 55.460938 Z M 88.539062 51.621094 C 93.628906 52.09375 98.503906 52.832031 103.042969 53.820312 C 106.121094 41.351562 105.367188 31.742188 101.082031 29.242188 C 99.613281 28.382812 97.648438 28.273438 95.246094 28.910156 C 90.636719 30.148438 85.082031 33.878906 79.15625 39.71875 C 82.359375 43.28125 85.511719 47.28125 88.539062 51.621094 Z M 46.40625 55.460938 C 46.070312 55.460938 45.765625 55.234375 45.679688 54.898438 C 42.175781 41.210938 43.125 30.886719 48.15625 27.945312 C 48.15625 27.945312 48.15625 27.945312 48.160156 27.945312 C 49.984375 26.882812 52.339844 26.714844 55.136719 27.464844 C 60.136719 28.804688 66.109375 32.847656 72.410156 39.164062 C 72.691406 39.445312 72.703125 39.902344 72.433594 40.199219 C 69.039062 43.921875 65.691406 48.152344 62.492188 52.765625 C 62.367188 52.945312 62.164062 53.0625 61.945312 53.082031 C 56.527344 53.574219 51.351562 54.367188 46.570312 55.441406 C 46.515625 55.453125 46.460938 55.460938 46.40625 55.460938 Z M 48.914062 29.242188 C 44.632812 31.742188 43.878906 41.351562 46.953125 53.820312 C 51.496094 52.832031 56.371094 52.09375 61.460938 51.621094 C 64.488281 47.28125 67.636719 43.28125 70.84375 39.71875 C 64.914062 33.878906 59.363281 30.144531 54.75 28.910156 C 52.359375 28.273438 50.390625 28.382812 48.914062 29.242188 Z M 82.296875 52.683594 C 82.285156 52.683594 82.273438 52.683594 82.261719 52.683594 C 77.300781 52.441406 72.699219 52.441406 67.742188 52.683594 C 67.433594 52.691406 67.179688 52.542969 67.042969 52.289062 C 66.90625 52.035156 66.929688 51.722656 67.101562 51.488281 C 69.480469 48.257812 71.953125 45.21875 74.445312 42.460938 C 74.730469 42.148438 75.273438 42.148438 75.558594 42.460938 C 78.050781 45.21875 80.519531 48.253906 82.902344 51.488281 C 83.074219 51.722656 83.09375 52.035156 82.960938 52.289062 C 82.824219 52.53125 82.570312 52.683594 82.296875 52.683594 Z M 75 51 C 76.863281 51 78.789062 51.039062 80.75 51.117188 C 78.871094 48.628906 76.941406 46.273438 75 44.089844 C 73.058594 46.273438 71.128906 48.628906 69.25 51.117188 C 71.210938 51.039062 73.136719 51 75 51 Z M 75 51 "/>
</g>
</svg>
