<?xml version="1.0" encoding="UTF-8"?>
<svg xmlns="http://www.w3.org/2000/svg" xmlns:xlink="http://www.w3.org/1999/xlink" width="72pt" height="72pt" viewBox="0 0 72 72" version="1.1">
<g id="surface27619">
<path style=" stroke:none;fill-rule:nonzero;fill:rgb(87.843138%,87.843138%,87.843138%);fill-opacity:1;" d="M 36 55.488281 L 36 34.351562 L 52.5 25.5 L 52.5 46.5 Z M 36 55.488281 "/>
<path style=" stroke:none;fill-rule:nonzero;fill:rgb(100%,100%,100%);fill-opacity:1;" d="M 36 55.488281 L 36 34.351562 L 19.5 25.5 L 19.5 46.5 Z M 36 55.488281 "/>
<path style=" stroke:none;fill-rule:nonzero;fill:rgb(96.078432%,96.078432%,96.078432%);fill-opacity:1;" d="M 19.5 25.5 L 36 16.511719 L 52.5 25.5 L 36 34.351562 Z M 19.5 25.5 "/>
<path style=" stroke:none;fill-rule:nonzero;fill:rgb(16.078432%,71.372551%,96.470588%);fill-opacity:1;" d="M 36 67.5 L 36 55.488281 L 52.5 46.5 L 63 52.5 Z M 36 67.5 "/>
<path style=" stroke:none;fill-rule:nonzero;fill:rgb(0.784314%,53.333336%,81.960785%);fill-opacity:1;" d="M 52.5 25.5 L 63 19.5 L 63 52.5 L 52.5 46.5 Z M 52.5 25.5 "/>
<path style=" stroke:none;fill-rule:nonzero;fill:rgb(61.176473%,80.000001%,39.607844%);fill-opacity:1;" d="M 36 4.5 L 36 16.511719 L 52.5 25.5 L 63 19.5 Z M 36 4.5 "/>
<path style=" stroke:none;fill-rule:nonzero;fill:rgb(48.627451%,70.19608%,25.882354%);fill-opacity:1;" d="M 9 19.5 L 19.5 25.5 L 36 16.511719 L 36 4.5 Z M 9 19.5 "/>
<path style=" stroke:none;fill-rule:nonzero;fill:rgb(76.078433%,9.411765%,35.686275%);fill-opacity:1;" d="M 9 52.5 L 19.5 46.5 L 19.5 25.5 L 9 19.5 Z M 9 52.5 "/>
<path style=" stroke:none;fill-rule:nonzero;fill:rgb(92.54902%,25.098041%,47.843137%);fill-opacity:1;" d="M 36 67.5 L 36 55.488281 L 19.5 46.5 L 9 52.5 Z M 36 67.5 "/>
</g>
</svg>
