<?xml version="1.0" encoding="UTF-8"?>
<svg xmlns="http://www.w3.org/2000/svg" xmlns:xlink="http://www.w3.org/1999/xlink" width="108pt" height="108pt" viewBox="0 0 108 108" version="1.1">
<g id="surface25085">
<path style=" stroke:none;fill-rule:nonzero;fill:rgb(48.627451%,30.19608%,100%);fill-opacity:1;" d="M 16.589844 25.746094 C 16.410156 20.546875 20.460938 15.75 25.941406 15.75 L 82.070312 15.75 C 87.546875 15.75 91.601562 20.546875 91.417969 25.746094 C 91.246094 30.742188 91.46875 37.214844 93.097656 42.492188 C 94.730469 47.789062 97.488281 51.132812 102 51.5625 L 102 56.4375 C 97.488281 56.867188 94.734375 60.214844 93.097656 65.507812 C 91.46875 70.785156 91.246094 77.257812 91.417969 82.253906 C 91.597656 87.453125 87.546875 92.25 82.070312 92.25 L 25.941406 92.25 C 20.464844 92.25 16.410156 87.453125 16.589844 82.253906 C 16.765625 77.257812 16.539062 70.785156 14.910156 65.507812 C 13.277344 60.210938 10.515625 56.867188 6 56.4375 L 6 51.5625 C 10.515625 51.132812 13.273438 47.785156 14.910156 42.492188 C 16.539062 37.214844 16.765625 30.742188 16.589844 25.746094 Z M 16.589844 25.746094 "/>
<path style=" stroke:none;fill-rule:nonzero;fill:rgb(100%,100%,100%);fill-opacity:1;" d="M 60.914062 52.792969 L 60.914062 52.730469 C 65.082031 52.011719 68.335938 48.101562 68.335938 43.796875 C 68.335938 40.757812 67.167969 38.179688 64.953125 36.347656 C 62.746094 34.519531 59.648438 33.554688 55.996094 33.554688 L 39.261719 33.554688 L 39.261719 74.429688 L 56.082031 74.429688 C 60.449219 74.429688 64.078125 73.363281 66.574219 71.34375 C 69.066406 69.320312 70.390625 66.378906 70.390625 62.832031 C 70.386719 57.472656 66.585938 53.449219 60.914062 52.792969 Z M 53.078125 50.867188 L 45.921875 50.867188 L 45.921875 38.902344 L 54.433594 38.902344 C 59.105469 38.902344 61.675781 40.953125 61.675781 44.671875 C 61.679688 48.667969 58.625 50.867188 53.078125 50.867188 Z M 45.921875 55.875 L 54.378906 55.875 C 60.488281 55.875 63.585938 58.082031 63.585938 62.4375 C 63.585938 66.785156 60.53125 69.082031 54.753906 69.082031 L 45.921875 69.082031 Z M 45.921875 55.875 "/>
</g>
</svg>
