<?xml version="1.0" encoding="UTF-8"?>
<svg xmlns="http://www.w3.org/2000/svg" xmlns:xlink="http://www.w3.org/1999/xlink" width="75pt" height="75pt" viewBox="0 0 75 75" version="1.1">
<g id="surface31335">
<path style=" stroke:none;fill-rule:nonzero;fill:rgb(100%,100%,100%);fill-opacity:1;" d="M 35.699219 30.105469 C 36.261719 29.285156 36.878906 29.179688 37.382812 29.179688 C 37.882812 29.179688 38.714844 29.285156 39.277344 30.105469 C 46.621094 40.109375 61.847656 66.492188 63.253906 67.929688 C 65.339844 70.058594 68.203125 68.730469 69.863281 66.316406 C 71.503906 63.941406 71.957031 62.273438 71.957031 60.492188 C 71.957031 59.28125 48.242188 15.53125 45.851562 11.890625 C 43.554688 8.382812 42.804688 7.5 38.878906 7.5 L 35.9375 7.5 C 32.015625 7.5 31.449219 8.382812 29.152344 11.882812 C 26.757812 15.535156 3.046875 59.285156 3.046875 60.496094 C 3.046875 62.277344 3.496094 63.945312 5.136719 66.320312 C 6.796875 68.734375 9.660156 70.0625 11.746094 67.933594 C 13.15625 66.496094 28.359375 40.113281 35.699219 30.113281 Z M 35.699219 30.105469 "/>
</g>
</svg>
