<?xml version="1.0" encoding="UTF-8"?>
<svg xmlns="http://www.w3.org/2000/svg" xmlns:xlink="http://www.w3.org/1999/xlink" width="108pt" height="108pt" viewBox="0 0 108 108" version="1.1">
<g id="surface16149">
<path style=" stroke:none;fill-rule:nonzero;fill:rgb(12.941177%,63.921571%,40.000001%);fill-opacity:1;" d="M 54.015625 102.191406 C 52.722656 102.191406 51.445312 101.855469 50.3125 101.203125 L 38.523438 94.222656 C 36.761719 93.234375 37.621094 92.886719 38.199219 92.6875 C 40.550781 91.867188 41.023438 91.679688 43.53125 90.253906 C 43.792969 90.101562 44.136719 90.15625 44.410156 90.316406 L 53.464844 95.691406 C 53.792969 95.871094 54.257812 95.871094 54.558594 95.691406 L 89.878906 75.304688 C 90.203125 75.117188 90.417969 74.742188 90.417969 74.351562 L 90.417969 33.597656 C 90.417969 33.191406 90.207031 32.828125 89.871094 32.625 L 54.570312 12.253906 C 54.242188 12.058594 53.808594 12.058594 53.484375 12.253906 L 18.183594 32.621094 C 17.84375 32.816406 17.625 33.195312 17.625 33.585938 L 17.625 74.34375 C 17.625 74.730469 17.835938 75.101562 18.171875 75.289062 L 27.847656 80.875 C 33.097656 83.5 36.304688 80.40625 36.304688 77.292969 L 36.304688 37.070312 C 36.304688 36.496094 36.757812 36.054688 37.332031 36.054688 L 41.804688 36.054688 C 42.363281 36.054688 42.820312 36.496094 42.820312 37.070312 L 42.820312 77.316406 C 42.820312 84.316406 39.003906 88.339844 32.363281 88.339844 C 30.320312 88.339844 28.710938 88.339844 24.222656 86.128906 L 14.957031 80.789062 C 12.664062 79.464844 11.25 76.984375 11.25 74.34375 L 11.25 33.589844 C 11.25 30.933594 12.664062 28.460938 14.953125 27.152344 L 50.308594 6.753906 C 52.546875 5.488281 55.515625 5.488281 57.738281 6.753906 L 93.046875 27.160156 C 95.324219 28.476562 96.75 30.945312 96.75 33.597656 L 96.75 74.351562 C 96.75 76.996094 95.324219 79.464844 93.046875 80.789062 L 57.734375 101.183594 C 56.601562 101.839844 55.320312 102.175781 54.011719 102.175781 "/>
<path style=" stroke:none;fill-rule:nonzero;fill:rgb(12.941177%,63.921571%,40.000001%);fill-opacity:1;" d="M 64.925781 74.109375 C 49.472656 74.109375 46.234375 67.015625 46.234375 61.066406 C 46.234375 60.5 46.691406 60.046875 47.257812 60.046875 L 51.820312 60.046875 C 52.324219 60.046875 52.75 60.414062 52.828125 60.910156 C 53.515625 65.558594 55.566406 67.90625 64.914062 67.90625 C 72.355469 67.90625 75.519531 66.222656 75.519531 62.277344 C 75.519531 60.003906 74.617188 58.316406 63.054688 57.183594 C 53.382812 56.230469 47.40625 54.097656 47.40625 46.363281 C 47.40625 39.238281 53.417969 34.996094 63.488281 34.996094 C 74.796875 34.996094 80.402344 38.921875 81.109375 47.351562 C 81.136719 47.644531 81.027344 47.925781 80.832031 48.140625 C 80.640625 48.34375 80.367188 48.46875 80.082031 48.46875 L 75.496094 48.46875 C 75.015625 48.46875 74.601562 48.132812 74.503906 47.671875 C 73.398438 42.78125 70.730469 41.21875 63.46875 41.21875 C 55.34375 41.21875 54.402344 44.046875 54.402344 46.167969 C 54.402344 48.738281 55.515625 49.492188 66.476562 50.941406 C 77.332031 52.382812 82.488281 54.417969 82.488281 62.046875 C 82.488281 69.738281 76.066406 74.148438 64.875 74.148438 "/>
</g>
</svg>
