<?xml version="1.0" encoding="UTF-8"?>
<svg xmlns="http://www.w3.org/2000/svg" xmlns:xlink="http://www.w3.org/1999/xlink" width="108pt" height="108pt" viewBox="0 0 108 108" version="1.1">
<defs>
<linearGradient id="linear0" gradientUnits="userSpaceOnUse" x1="10.458" y1="12.972" x2="26.313999" y2="26.277" gradientTransform="matrix(2.25,0,0,2.25,0,0)">
<stop offset="0" style="stop-color:rgb(14.901961%,67.058825%,90.588236%);stop-opacity:1;"/>
<stop offset="1" style="stop-color:rgb(3.137255%,42.745098%,74.901962%);stop-opacity:1;"/>
</linearGradient>
<linearGradient id="linear1" gradientUnits="userSpaceOnUse" x1="35.334" y1="37.910999" x2="23.517" y2="21.034" gradientTransform="matrix(2.25,0,0,2.25,0,0)">
<stop offset="0" style="stop-color:rgb(99.607843%,71.764708%,1.960784%);stop-opacity:1;"/>
<stop offset="1" style="stop-color:rgb(100%,85.490197%,10.980392%);stop-opacity:1;"/>
</linearGradient>
</defs>
<g id="surface7220">
<path style=" stroke:none;fill-rule:nonzero;fill:url(#linear0);" d="M 54.105469 11.25 C 50.605469 11.261719 48.179688 11.570312 45.25 12.074219 C 36.589844 13.582031 35.015625 16.75 35.015625 22.582031 L 35.015625 31.5 L 55.265625 31.5 L 55.265625 36 L 24.457031 36 C 18.527344 36 13.335938 38.792969 11.691406 45.492188 C 9.832031 53.179688 9.75 57.996094 11.691406 66.023438 C 13.164062 72.011719 16.410156 76.5 22.34375 76.5 L 30.515625 76.5 L 30.515625 65.015625 C 30.515625 58.34375 36.558594 51.75 43.484375 51.75 L 59.765625 51.75 C 65.445312 51.75 71.015625 47.558594 71.015625 41.902344 L 71.015625 22.582031 C 71.015625 17.09375 67.058594 12.992188 61.527344 12.070312 C 61.664062 12.058594 57.574219 11.238281 54.105469 11.25 Z M 42.890625 20.25 C 44.738281 20.25 46.265625 21.773438 46.265625 23.628906 C 46.265625 25.503906 44.738281 27 42.890625 27 C 41.007812 27 39.515625 25.507812 39.515625 23.628906 C 39.515625 21.78125 41.007812 20.25 42.890625 20.25 Z M 42.890625 20.25 "/>
<path style=" stroke:none;fill-rule:nonzero;fill:url(#linear1);" d="M 51.925781 96.75 C 55.425781 96.738281 57.851562 96.429688 60.78125 95.925781 C 69.441406 94.417969 71.015625 91.25 71.015625 85.417969 L 71.015625 76.5 L 50.765625 76.5 L 50.765625 72 L 81.574219 72 C 87.507812 72 92.699219 69.207031 94.34375 62.507812 C 96.199219 54.820312 96.285156 50.003906 94.34375 41.976562 C 92.867188 35.988281 89.621094 31.5 83.6875 31.5 L 75.515625 31.5 L 75.515625 42.984375 C 75.515625 49.65625 69.472656 56.25 62.546875 56.25 L 46.265625 56.25 C 40.585938 56.25 35.015625 60.441406 35.015625 66.097656 L 35.015625 85.417969 C 35.015625 90.90625 38.972656 95.007812 44.503906 95.929688 C 44.367188 95.941406 48.457031 96.761719 51.925781 96.75 Z M 63.140625 87.75 C 61.292969 87.75 59.765625 86.226562 59.765625 84.371094 C 59.765625 82.496094 61.292969 81 63.140625 81 C 65.023438 81 66.515625 82.492188 66.515625 84.371094 C 66.515625 86.21875 65.023438 87.75 63.140625 87.75 Z M 63.140625 87.75 "/>
</g>
</svg>
