<?xml version="1.0" encoding="UTF-8"?>
<svg xmlns="http://www.w3.org/2000/svg" xmlns:xlink="http://www.w3.org/1999/xlink" width="108pt" height="108pt" viewBox="0 0 108 108" version="1.1">
<defs>
<linearGradient id="linear0" gradientUnits="userSpaceOnUse" x1="21.861" y1="8.237" x2="25.702999" y2="36.551998" gradientTransform="matrix(2.25,0,0,2.25,0,0)">
<stop offset="0" style="stop-color:rgb(0%,75.686276%,87.843138%);stop-opacity:1;"/>
<stop offset="1" style="stop-color:rgb(0%,60.784316%,72.156864%);stop-opacity:1;"/>
</linearGradient>
</defs>
<g id="surface25337">
<path style=" stroke:none;fill-rule:nonzero;fill:url(#linear0);" d="M 54 21.609375 C 41.425781 21.609375 32.96875 27.097656 28.628906 38.074219 C 28.179688 39.210938 29.566406 40.144531 30.464844 39.3125 C 35.042969 35.078125 40.191406 33.679688 45.898438 35.105469 C 50.007812 36.128906 52.945312 39.113281 56.195312 42.410156 C 61.488281 47.78125 67.613281 54 81 54 C 93.574219 54 102.03125 48.511719 106.371094 37.53125 C 106.820312 36.394531 105.433594 35.460938 104.535156 36.292969 C 99.957031 40.527344 94.808594 41.929688 89.101562 40.503906 C 84.992188 39.476562 82.058594 36.496094 78.804688 33.199219 C 73.511719 27.824219 67.382812 21.609375 54 21.609375 Z M 27 54 C 14.425781 54 5.96875 59.488281 1.628906 70.46875 C 1.179688 71.605469 2.566406 72.539062 3.464844 71.707031 C 8.042969 67.472656 13.191406 66.070312 18.898438 67.496094 C 23.007812 68.527344 25.941406 71.503906 29.195312 74.800781 C 34.488281 80.175781 40.617188 86.394531 54 86.394531 C 66.574219 86.394531 75.03125 80.902344 79.371094 69.925781 C 79.820312 68.789062 78.433594 67.855469 77.535156 68.6875 C 72.957031 72.921875 67.808594 74.324219 62.101562 72.894531 C 57.992188 71.871094 55.054688 68.886719 51.804688 65.59375 C 46.511719 60.21875 40.386719 54 27 54 Z M 27 54 "/>
</g>
</svg>
