<?xml version="1.0" encoding="UTF-8"?>
<svg xmlns="http://www.w3.org/2000/svg" xmlns:xlink="http://www.w3.org/1999/xlink" width="108pt" height="108pt" viewBox="0 0 108 108" version="1.1">
<g id="surface4168">
<path style=" stroke:none;fill-rule:nonzero;fill:rgb(9.803922%,46.27451%,82.352942%);fill-opacity:1;" d="M 13.5 13.5 L 94.5 13.5 L 94.5 94.5 L 13.5 94.5 Z M 13.5 13.5 "/>
<path style=" stroke:none;fill-rule:nonzero;fill:rgb(100%,100%,100%);fill-opacity:1;" d="M 61.851562 49.5 L 32.011719 49.5 L 32.011719 56.84375 L 42.714844 56.84375 L 42.714844 90 L 51.195312 90 L 51.195312 56.84375 L 61.851562 56.84375 Z M 61.851562 49.5 "/>
<path style=" stroke:none;fill-rule:nonzero;fill:rgb(100%,100%,100%);fill-opacity:1;" d="M 88.1875 58.6875 C 88.1875 58.6875 84.164062 56.007812 79.621094 56.007812 C 75.074219 56.007812 73.441406 58.167969 73.441406 60.476562 C 73.441406 66.433594 90.046875 65.835938 90.046875 77.828125 C 90.046875 96.296875 64.726562 88.105469 64.726562 88.105469 L 64.726562 79.246094 C 64.726562 79.246094 69.566406 82.894531 75.375 82.894531 C 81.183594 82.894531 80.960938 79.097656 80.960938 78.574219 C 80.960938 73.0625 64.503906 73.0625 64.503906 60.847656 C 64.503906 44.242188 88.484375 50.792969 88.484375 50.792969 Z M 88.1875 58.6875 "/>
</g>
</svg>
