<?xml version="1.0" encoding="UTF-8"?>
<svg xmlns="http://www.w3.org/2000/svg" xmlns:xlink="http://www.w3.org/1999/xlink" width="108pt" height="108pt" viewBox="0 0 108 108" version="1.1">
<defs>
<linearGradient id="linear0" gradientUnits="userSpaceOnUse" x1="13.315" y1="514.906006" x2="38.005001" y2="481.377014" gradientTransform="matrix(2.25,0,0,-2.25,0,1156.5)">
<stop offset="0" style="stop-color:rgb(25.490198%,81.960785%,100%);stop-opacity:1;"/>
<stop offset="1" style="stop-color:rgb(57.254905%,19.215687%,74.509805%);stop-opacity:1;"/>
</linearGradient>
<linearGradient id="linear1" gradientUnits="userSpaceOnUse" x1="25.502001" y1="508.764008" x2="37.131001" y2="428.98999" gradientTransform="matrix(2.25,0,0,-2.25,0,1156.5)">
<stop offset="0" style="stop-color:rgb(99.607843%,81.960785%,0%);stop-opacity:1;"/>
<stop offset="1" style="stop-color:rgb(89.019608%,37.64706%,0.392157%);stop-opacity:1;"/>
</linearGradient>
</defs>
<g id="surface7521">
<path style=" stroke:none;fill-rule:nonzero;fill:url(#linear0);" d="M 100.933594 22.445312 L 56.300781 102.257812 C 55.378906 103.90625 53.011719 103.917969 52.078125 102.277344 L 6.558594 22.453125 C 5.539062 20.667969 7.066406 18.5 9.09375 18.863281 L 53.773438 26.851562 C 54.0625 26.902344 54.351562 26.902344 54.636719 26.847656 L 98.382812 18.875 C 100.402344 18.507812 101.9375 20.65625 100.933594 22.445312 Z M 100.933594 22.445312 "/>
<path style=" stroke:none;fill-rule:nonzero;fill:url(#linear1);" d="M 75.542969 6.773438 L 42.792969 13.191406 C 42.253906 13.296875 41.855469 13.753906 41.824219 14.296875 L 39.808594 48.320312 C 39.761719 49.121094 40.496094 49.746094 41.28125 49.5625 L 50.398438 47.460938 C 51.25 47.261719 52.023438 48.011719 51.847656 48.871094 L 49.136719 62.136719 C 48.957031 63.027344 49.792969 63.792969 50.664062 63.527344 L 56.296875 61.816406 C 57.171875 61.550781 58.007812 62.316406 57.824219 63.210938 L 53.519531 84.046875 C 53.25 85.347656 54.984375 86.058594 55.707031 84.941406 L 56.191406 84.195312 L 82.875 30.941406 C 83.324219 30.046875 82.550781 29.03125 81.574219 29.222656 L 72.1875 31.03125 C 71.308594 31.203125 70.558594 30.382812 70.804688 29.519531 L 76.929688 8.28125 C 77.175781 7.421875 76.425781 6.597656 75.542969 6.773438 Z M 75.542969 6.773438 "/>
</g>
</svg>
